HIERARCHY
ROOT Hips
{
	OFFSET 0.000000 0.000000 0.000000
	CHANNELS 6 Xposition Yposition Zposition Zrotation Yrotation Xrotation 
	JOINT LHipJoint
	{
		OFFSET 0.000000 0.000000 0.000000
		CHANNELS 3 Zrotation Yrotation Xrotation
		JOINT LeftUpLeg
		{
			OFFSET 1.363060 -1.794630 0.839290
			CHANNELS 3 Zrotation Yrotation Xrotation
			JOINT LeftLeg
			{
				OFFSET 2.448110 -6.726130 0.000000
				CHANNELS 3 Zrotation Yrotation Xrotation
				JOINT LeftFoot
				{
					OFFSET 2.562200 -7.039590 0.000000
					CHANNELS 3 Zrotation Yrotation Xrotation
					JOINT LeftToeBase
					{
						OFFSET 0.157640 -0.433110 2.322550
						CHANNELS 3 Zrotation Yrotation Xrotation
						End Site
						{
							OFFSET 0.000000 0.000000 0.000000
						}
					}
				}
			}
		}
	}
	JOINT RHipJoint
	{
		OFFSET 0.000000 0.000000 0.000000
		CHANNELS 3 Zrotation Yrotation Xrotation
		JOINT RightUpLeg
		{
			OFFSET -1.305520 -1.794630 0.839290
			CHANNELS 3 Zrotation Yrotation Xrotation
			JOINT RightLeg
			{
				OFFSET -2.542530 -6.985550 0.000000
				CHANNELS 3 Zrotation Yrotation Xrotation
				JOINT RightFoot
				{
					OFFSET -2.568260 -7.056230 0.000000
					CHANNELS 3 Zrotation Yrotation Xrotation
					JOINT RightToeBase
					{
						OFFSET -0.164730 -0.452590 2.363150
						CHANNELS 3 Zrotation Yrotation Xrotation
						End Site
						{
							OFFSET 0.000000 0.000000 0.000000
						}
					}
				}
			}
		}
	}
	JOINT LowerBack
	{
		OFFSET 0.000000 0.000000 0.000000
		CHANNELS 3 Zrotation Yrotation Xrotation
		JOINT Spine
		{
			OFFSET 0.028270 2.035590 -0.193380
			CHANNELS 3 Zrotation Yrotation Xrotation
			JOINT Spine1
			{
				OFFSET 0.056720 2.048850 -0.042750
				CHANNELS 3 Zrotation Yrotation Xrotation
				JOINT Neck
				{
					OFFSET 0.000000 0.000000 0.000000
					CHANNELS 3 Zrotation Yrotation Xrotation
					JOINT Neck1
					{
						OFFSET -0.054170 1.746240 0.172020
						CHANNELS 3 Zrotation Yrotation Xrotation
						JOINT Head
						{
							OFFSET 0.104070 1.761360 -0.123970
							CHANNELS 3 Zrotation Yrotation Xrotation
							End Site
							{
								OFFSET 0.000000 0.000000 0.000000
							}
						}
					}
				}
				JOINT LeftShoulder
				{
					OFFSET 0.000000 0.000000 0.000000
					CHANNELS 3 Zrotation Yrotation Xrotation
					JOINT LeftArm
					{
						OFFSET 3.362410 1.200890 -0.311210
						CHANNELS 3 Zrotation Yrotation Xrotation
						JOINT LeftForeArm
						{
							OFFSET 4.983000 -0.000000 -0.000000
							CHANNELS 3 Zrotation Yrotation Xrotation
							JOINT LeftHand
							{
								OFFSET 3.483560 -0.000000 -0.000000
								CHANNELS 3 Zrotation Yrotation Xrotation
								JOINT LeftFingerBase
								{
									OFFSET 0.000000 0.000000 0.000000
									CHANNELS 3 Zrotation Yrotation Xrotation
									JOINT LeftHandIndex1
									{
										OFFSET 0.715260 -0.000000 -0.000000
										CHANNELS 3 Zrotation Yrotation Xrotation
										End Site
										{
											OFFSET 0.000000 0.000000 0.000000
										}
									}
								}
								JOINT LThumb
								{
									OFFSET 0.000000 0.000000 0.000000
									CHANNELS 3 Zrotation Yrotation Xrotation
									End Site
									{
										OFFSET 0.000000 0.000000 0.000000
									}
								}
							}
						}
					}
				}
				JOINT RightShoulder
				{
					OFFSET 0.000000 0.000000 0.000000
					CHANNELS 3 Zrotation Yrotation Xrotation
					JOINT RightArm
					{
						OFFSET -3.136600 1.374050 -0.404650
						CHANNELS 3 Zrotation Yrotation Xrotation
						JOINT RightForeArm
						{
							OFFSET -5.241900 -0.000000 -0.000000
							CHANNELS 3 Zrotation Yrotation Xrotation
							JOINT RightHand
							{
								OFFSET -3.444170 -0.000000 -0.000000
								CHANNELS 3 Zrotation Yrotation Xrotation
								JOINT RightFingerBase
								{
									OFFSET 0.000000 0.000000 0.000000
									CHANNELS 3 Zrotation Yrotation Xrotation
									JOINT RightHandIndex1
									{
										OFFSET -0.622530 -0.000000 -0.000000
										CHANNELS 3 Zrotation Yrotation Xrotation
										End Site
										{
											OFFSET 0.000000 0.000000 0.000000
										}
									}
								}
								JOINT RThumb
								{
									OFFSET 0.000000 0.000000 0.000000
									CHANNELS 3 Zrotation Yrotation Xrotation
									End Site
									{
										OFFSET 0.000000 0.000000 0.000000
									}
								}
							}
						}
					}
				}
			}
		}
	}
}
MOTION
Frames: 10
Frame Time: 0.008333
1.212719 16.465646 -1.638040 -163.944813 86.615726 -144.817215 -11.827033 3.376121 -1.181572 -6.436757 -0.911643 1.163608 -0.561505 2.074980 28.472553 0.702879 1.675376 10.966154 0.320700 -0.000000 -90.107700 8.182334 1.103935 1.284810 3.682012 2.992344 -46.751656 2.417354 -1.348529 19.254134 0.647062 3.535181 10.594806 0.590400 0.000000 -56.283800 8.601582 -2.760663 1.774379 0.428113 -3.333358 -2.046715 -8.846012 -3.218946 2.117062 10.305221 -7.536090 -6.742356 -4.837795 -0.362713 0.081847 0.000000 0.000000 0.000000 -0.282547 8.932809 2.671979 -25.993152 -15.622535 4.114301 -0.680651 -79.686332 0.047571 -12.739556 0.006235 0.023487 0.081857 0.214068 0.000000 0.000000 0.000000 0.000000 0.000000 0.000000 0.000000 22.607123 -6.643592 0.799268 71.680977 -8.223614 -16.180535 3.759146 18.456073 0.013674 3.833559 8.157197 0.271790 0.060156 -0.066019 -0.000000 0.000000 0.000000 0.000000 0.000000 0.000000 0.000000 
1.421789 16.469114 -1.665388 -159.856966 86.192943 -140.819948 -12.273584 3.392580 -1.218187 -5.479524 -0.156477 -0.149393 -0.334729 2.240826 31.143651 0.863379 1.899006 13.265889 0.342800 -0.000001 -88.899800 7.969053 1.006461 1.057733 4.436782 2.798891 -46.733495 2.366538 -1.516372 21.220318 0.591984 3.201102 10.306361 0.465100 -0.000000 -54.899700 9.257277 -2.662212 1.957232 0.553470 -3.262802 -2.043547 -8.827868 -3.154964 2.053245 10.246403 -7.129477 -6.602576 -4.876669 -0.365672 0.115283 0.000000 0.000000 0.000000 -0.518406 8.988203 2.665704 -26.888783 -15.276075 4.419605 -0.700978 -79.735737 0.047159 -12.706427 -0.037136 0.028221 0.076269 0.212701 0.000000 0.000000 0.000000 0.000000 0.000000 0.000000 0.000000 22.574742 -6.219715 0.813123 71.215303 -7.431803 -16.078669 3.771975 18.137847 0.013581 3.777889 8.177061 0.268488 0.059883 -0.065860 -0.000000 0.000000 0.000000 0.000000 0.000000 0.000000 0.000000 
1.626894 16.477244 -1.690274 -157.464627 85.657494 -138.528310 -12.665644 3.356836 -1.271966 -4.560312 0.645398 -1.562437 -0.120517 2.376966 33.897785 1.059195 2.395457 15.497923 0.468800 -0.000000 -86.326200 7.783954 0.904864 0.846166 5.159799 2.535742 -46.575721 2.333272 -1.649694 22.966914 0.518931 2.785906 9.557409 0.300500 0.000001 -54.031400 9.857139 -2.582156 2.142502 0.671087 -3.205527 -2.038999 -8.806045 -3.105052 1.986736 10.217126 -6.705699 -6.442233 -4.912242 -0.368452 0.154266 0.000000 0.000000 0.000000 -0.701388 8.984246 2.662110 -27.875812 -14.921394 4.840869 -0.726512 -79.707844 0.046695 -12.686980 -0.076353 0.032357 0.070901 0.210787 0.000000 0.000000 0.000000 0.000000 0.000000 0.000000 0.000000 22.555711 -5.796945 0.827629 70.762120 -6.574394 -15.967873 3.780296 17.787518 0.013450 3.712880 8.192536 0.264287 0.059466 -0.065692 -0.000000 0.000000 0.000000 0.000000 0.000000 0.000000 0.000000 
1.828278 16.489723 -1.712866 -156.236535 85.044568 -137.403163 -13.003964 3.279806 -1.337256 -3.694035 1.469870 -3.076402 0.068096 2.492610 36.719825 1.282339 3.224781 17.499850 0.751000 -0.000000 -82.374000 7.626775 0.805646 0.652093 5.841256 2.228433 -46.274212 2.317883 -1.746960 24.472043 0.428854 2.298380 8.446398 0.113700 0.000000 -53.627200 10.402625 -2.512107 2.319816 0.778907 -3.154607 -2.034966 -8.783294 -3.061932 1.919224 10.208714 -6.266167 -6.265622 -4.943525 -0.370953 0.197869 0.000000 0.000000 0.000000 -0.868507 8.940221 2.662609 -28.889348 -14.578917 5.388679 -0.757221 -79.601954 0.046122 -12.676025 -0.106302 0.035394 0.065646 0.208138 0.000000 0.000000 0.000000 0.000000 0.000000 0.000000 0.000000 22.540242 -5.370906 0.842821 70.330066 -5.659630 -15.881801 3.785564 17.411575 0.013296 3.652530 8.197320 0.260084 0.058905 -0.065615 -0.000000 0.000000 0.000000 0.000000 0.000000 0.000000 0.000000 
2.025990 16.506171 -1.731986 -156.113521 84.382910 -137.382131 -13.262453 3.174220 -1.409443 -2.961737 2.261738 -4.664706 0.224620 2.596276 39.575317 1.522878 4.452953 19.127689 1.242000 0.000000 -77.191500 7.520473 0.723117 0.474828 6.422682 1.854723 -45.849777 2.313779 -1.814899 25.752808 0.326431 1.792986 7.072450 -0.062200 0.000000 -53.589700 10.847492 -2.451696 2.483099 0.867233 -3.107905 -2.032013 -8.758465 -3.023339 1.851673 10.228044 -5.827711 -6.077340 -4.970599 -0.373194 0.245103 0.000000 0.000000 0.000000 -0.980516 8.841216 2.665184 -29.960014 -14.227643 6.056332 -0.793863 -79.401858 0.045439 -12.687646 -0.125073 0.037134 0.060822 0.204567 -0.000000 0.000000 0.000000 0.000000 0.000000 0.000000 0.000000 22.542919 -4.956691 0.859359 69.915201 -4.689274 -15.774600 3.786669 17.018885 0.013137 3.582923 8.202201 0.255281 0.058287 -0.065742 -0.000000 0.000000 0.000000 0.000000 0.000000 0.000000 0.000000 
2.220471 16.526548 -1.748494 -156.705582 83.682437 -138.064178 -13.456408 3.048529 -1.482938 -2.358379 3.008048 -6.338480 0.351352 2.697734 42.443695 1.769685 6.055621 20.265080 1.939600 0.000000 -71.158200 7.453485 0.652648 0.319320 6.904325 1.440973 -45.305092 2.319850 -1.851889 26.777005 0.213174 1.272880 5.570656 -0.217400 -0.000000 -53.797500 11.205364 -2.397144 2.619334 0.938364 -3.063649 -2.033670 -8.733136 -2.987471 1.782107 10.259215 -5.381128 -5.877657 -4.993401 -0.375196 0.296083 0.000000 0.000000 0.000000 -1.082131 8.692827 2.673762 -31.029604 -13.866040 6.844143 -0.836116 -79.118282 0.044596 -12.714913 -0.127834 0.037073 0.056157 0.199904 -0.000000 0.000000 0.000000 0.000000 0.000000 0.000000 0.000000 22.546460 -4.540430 0.878056 69.524581 -3.687150 -15.693973 3.785175 16.629130 0.012984 3.525109 8.199105 0.251079 0.057562 -0.066145 -0.000000 0.000000 0.000000 0.000000 0.000000 0.000000 0.000000 
2.411916 16.550771 -1.762280 -157.930257 82.954531 -139.361304 -13.578629 2.912055 -1.553784 -1.929547 3.673508 -8.082013 0.455183 2.801931 45.282007 2.015380 7.989127 20.860490 2.811900 -0.000000 -64.798900 7.434956 0.598491 0.185657 7.252500 0.977722 -44.662190 2.330264 -1.863466 27.549780 0.094670 0.770313 4.059559 -0.338500 0.000001 -54.144300 11.454181 -2.348761 2.723890 0.988489 -3.021390 -2.039970 -8.705476 -2.953696 1.713467 10.300816 -4.941062 -5.674050 -5.011684 -0.376923 0.348829 0.000000 0.000000 0.000000 -1.159735 8.501220 2.687345 -32.116023 -13.502828 7.741469 -0.885833 -78.728267 0.043593 -12.765674 -0.114100 0.035012 0.051706 0.194132 0.000000 0.000000 0.000000 0.000000 0.000000 0.000000 0.000000 22.554525 -4.134516 0.898321 69.149843 -2.652633 -15.593837 3.780880 16.256273 0.012855 3.468381 8.199154 0.247076 0.056824 -0.066903 -0.000000 0.000000 0.000000 0.000000 0.000000 0.000000 0.000000 
2.600621 16.578937 -1.774165 -159.595141 82.202432 -141.071305 -13.639722 2.770103 -1.616382 -1.680443 4.240150 -9.894069 0.545105 2.910330 48.051460 2.254939 10.149610 20.920190 3.781400 0.000000 -58.670000 7.458782 0.556366 0.075964 7.464950 0.477100 -43.936874 2.341747 -1.852036 28.061485 -0.024536 0.290520 2.655502 -0.427400 -0.000000 -54.538401 11.600783 -2.304684 2.789193 1.019439 -2.980204 -2.052927 -8.674630 -2.921112 1.644874 10.341130 -4.505445 -5.468833 -5.025405 -0.378390 0.402744 0.000000 0.000000 0.000000 -1.233278 8.270961 2.707684 -33.204675 -13.137151 8.736260 -0.943888 -78.228515 0.042417 -12.838316 -0.082685 0.030954 0.047281 0.187241 0.000000 0.000000 0.000000 0.000000 0.000000 0.000000 0.000000 22.555231 -3.733225 0.920487 68.789020 -1.603020 -15.475928 3.774713 15.923314 0.012763 3.420848 8.202806 0.243775 0.056085 -0.068058 -0.000000 0.000000 0.000000 0.000000 0.000000 0.000000 0.000000 
2.786789 16.611153 -1.784978 -161.562711 81.429613 -143.050048 -13.648890 2.626084 -1.666388 -1.616379 4.694170 -11.768108 0.628655 3.020768 50.712955 2.484783 12.410362 20.497136 4.753200 0.000000 -53.199700 7.519997 0.522777 -0.009631 7.542171 -0.053635 -43.147824 2.350976 -1.821113 28.314136 -0.139446 -0.162529 1.449720 -0.490600 0.000000 -54.921700 11.650191 -2.263031 2.812280 1.032779 -2.938664 -2.073429 -8.638854 -2.888315 1.576025 10.370460 -4.074602 -5.264868 -5.034374 -0.379592 0.457000 0.000000 0.000000 0.000000 -1.314010 8.008764 2.735321 -34.296208 -12.771931 9.812284 -1.011586 -77.610127 0.041067 -12.932187 -0.033618 0.024697 0.042733 0.179302 0.000000 0.000000 0.000000 0.000000 0.000000 0.000000 0.000000 22.538334 -3.333443 0.944550 68.437010 -0.551989 -15.323707 3.767461 15.654446 0.012723 3.386637 8.212536 0.241675 0.055373 -0.069632 -0.000000 0.000000 0.000000 0.000000 0.000000 0.000000 0.000000 
2.970476 16.647529 -1.795609 -163.711100 80.640882 -145.171835 -13.616551 2.481921 -1.701366 -1.733851 5.033447 -13.694885 0.710404 3.129250 53.230673 2.701189 14.638190 19.670670 5.633599 0.000000 -48.607101 7.612051 0.493972 -0.072474 7.492709 -0.607399 -42.311052 2.355526 -1.774066 28.317766 -0.245807 -0.588884 0.503072 -0.538100 0.000000 -55.269300 11.610288 -2.221471 2.794412 1.030552 -2.894731 -2.101542 -8.596118 -2.853323 1.506596 10.380198 -3.648966 -5.064775 -5.038213 -0.380502 0.510777 0.000000 0.000000 0.000000 -1.411396 7.722490 2.770182 -35.395277 -12.411309 10.950438 -1.090310 -76.863300 0.039550 -13.045722 0.031939 0.016442 0.037926 0.170451 0.000000 0.000000 0.000000 0.000000 0.000000 0.000000 0.000000 22.493229 -2.932278 0.970439 68.088445 0.487188 -15.116185 3.759946 15.473964 0.012743 3.370271 8.229750 0.241175 0.054711 -0.071621 -0.000000 0.000000 0.000000 0.000000 0.000000 0.000000 0.000000 
